<?xml version="1.0" standalone="no"?>
<!DOCTYPE svg PUBLIC "-//W3C//DTD SVG 20010904//EN"
 "http://www.w3.org/TR/2001/REC-SVG-20010904/DTD/svg10.dtd">
<svg version="1.0" xmlns="http://www.w3.org/2000/svg"
 width="700.000000pt" height="700.000000pt" viewBox="0 0 700.000000 700.000000"
 preserveAspectRatio="xMidYMid meet">
<metadata>
Created by potrace 1.14, written by Peter Selinger 2001-2017
</metadata>
<g transform="translate(0.000000,700.000000) scale(0.100000,-0.100000)"
fill="#000000" stroke="none">
<path d="M0 3500 l0 -3500 3500 0 3500 0 0 3500 0 3500 -3500 0 -3500 0 0
-3500z m3593 2538 c3 -7 159 -377 347 -823 188 -445 344 -816 347 -822 4 -10
-70 -13 -350 -13 l-355 0 -32 83 c-18 45 -36 86 -40 90 -4 4 -24 -33 -44 -83
l-38 -90 -353 0 -353 0 268 628 c146 345 306 720 355 835 l88 207 77 0 c53 0
79 -4 83 -12z m-376 -2180 c-165 -397 -879 -2170 -875 -2173 3 -3 526 -4 1164
-3 l1160 3 -443 1100 -442 1100 356 3 c196 1 358 0 360 -2 3 -2 281 -659 618
-1460 338 -801 617 -1460 620 -1466 4 -7 -741 -10 -2233 -10 l-2239 0 625
1470 626 1470 358 0 358 0 -13 -32z"/>
</g>
</svg>
