<svg xmlns="http://www.w3.org/2000/svg" viewBox="0 0 32.39 32.24"><defs><style>.cls-1{fill:#111;}</style></defs><title>zap</title><g id="Layer_2" data-name="Layer 2"><g id="_1" data-name="1"><polygon class="cls-1" points="24.16 20.35 24.15 20.34 24.14 20.33 24.16 20.35"/><path class="cls-1" d="M23.66,21.9a4,4,0,0,0,.26-1.38l-.24-.12-.21-.1C22.94,20,21,19.08,20.67,19l-.12,0c-.31.46-1,1.32-1.35,1.68a1.36,1.36,0,0,1-1.81.3c-2.51-1.26-4.28-2.3-6-5.29a1.36,1.36,0,0,1,.35-1.79,4.46,4.46,0,0,0,.87-1.2l0-.09c-.08-.16-.4-.94-.92-2.19l-.4-1c-.09-.22-.13-.27-.14-.27h-.16c-.24,0-.5,0-.74,0a.84.84,0,0,0-.63.29l-.08.1a3.94,3.94,0,0,0-1.19,2.92,7.09,7.09,0,0,0,1.55,3.9l.11.15a17.52,17.52,0,0,0,6.8,6c2.49,1.08,3.45,1.18,4.66,1A3.71,3.71,0,0,0,23.66,21.9Z"/><path class="cls-1" d="M8.41,30.28a16.24,16.24,0,0,0,24-14.16A16.14,16.14,0,0,0,27.51,4.73,16.12,16.12,0,0,0,2.15,24.17l.15.27L.16,32.23l8-2.09ZM3.8,24.21,3.64,24A14.73,14.73,0,0,1,26.53,5.71,14.68,14.68,0,0,1,31,16.12,14.82,14.82,0,0,1,16.11,30.85a14.63,14.63,0,0,1-7.5-2.05l-.25-.14L2.14,30.29Z"/></g></g></svg>