<svg xmlns="http://www.w3.org/2000/svg" viewBox="0 0 554 130.34"><defs><style>.cls-1{fill:#fff;}</style></defs><g id="Camada_2" data-name="Camada 2"><g id="Layer_1" data-name="Layer 1"><path class="cls-1" d="M544.54,110a9.93,9.93,0,0,1,4.28.73l.09.06.11.05c.11.06.22.11.31.17a6.91,6.91,0,0,1,.73.56,4.64,4.64,0,0,1,1.1,1.61,6.81,6.81,0,0,1,.56,2.87v.37c0,.13,0,.27,0,.42,0,.38-.1.73-.17,1.07a5.81,5.81,0,0,1-1.27,2.48l-.09.09-.08.08a1.46,1.46,0,0,1-.25.25,3.18,3.18,0,0,1-.71.59,6.27,6.27,0,0,1-1,.51l5.86,8H547.3l-3.94-5.64v-5.43h.42l.39,0a2.53,2.53,0,0,0,.88-.2,2,2,0,0,0,1.12-2,1.79,1.79,0,0,0-.95-1.81,2.61,2.61,0,0,0-.79-.22,2,2,0,0,0-.34,0h-1.55v15.32h-5.32V110Zm-35.35,0,7.26,19.88h-5.66l-1.21-3.49H503.7l1.39-4.25h3.08l-1-3.44c-.23-.75-.55-1.88-1-3.38-.36,1.37-.68,2.51-1,3.41l-1,3.39-1.41,4.27h0v0h0l-1.12,3.46h-5.77L503.19,110Zm-41.95,7.8a5.34,5.34,0,0,0,1.18-.09,1.75,1.75,0,0,0,1.49-1.83v-.11l0-.17a2.59,2.59,0,0,0-.09-.42,1.71,1.71,0,0,0-1.18-1A2.9,2.9,0,0,0,468,114h-.11l-.11,0h-1.33v11.88h1.66a5.81,5.81,0,0,0,1.27-.14,1.86,1.86,0,0,0,1.07-.7,2.34,2.34,0,0,0,.17-2.09,1.64,1.64,0,0,0-1-.9,4.55,4.55,0,0,0-1.35-.22h-1Zm.48-7.8.93,0,1,0a9.92,9.92,0,0,1,1.89.31,4.47,4.47,0,0,1,3,2.31,4.28,4.28,0,0,1,.36.93,5.52,5.52,0,0,1,.2,1.52v.31a2.51,2.51,0,0,0,0,.37,5.92,5.92,0,0,1-.22.9,4.24,4.24,0,0,1-1.35,2l-.26.2-.22.17-.31.19.39.14.4.17a4.83,4.83,0,0,1,.76.4,4.46,4.46,0,0,1,1.86,2.42,5.05,5.05,0,0,1,.25,1.18l.06.45v.57l0,.25a3.66,3.66,0,0,1-.06.68,5.47,5.47,0,0,1-.59,1.66,5.08,5.08,0,0,1-3.55,2.31,15.33,15.33,0,0,1-2.34.31l-1.21,0-1.15,0h-6.37V110ZM425.6,122.23a26.14,26.14,0,0,0,2.68-2.9l2.93,3.38c-.4.41-.8.81-1.21,1.21-.21.2-.47.45-.79.73l-.82.73,4,4.45h-6.28l-1.47-1.63L421.85,125l-.61-.71-.62-.67-1-1.1-.31-.37-.31-.36a6.53,6.53,0,0,0-.82.45,2.67,2.67,0,0,0-.36.31c-1.28,1.28.19,3.21,1.83,3.21a3.86,3.86,0,0,0,1.44-.38l2.87,3.27c-.18.12-.34.21-.48.29a7.11,7.11,0,0,1-.73.37,7.76,7.76,0,0,1-1.1.42,9.78,9.78,0,0,1-3.07.51h-.23l-.31,0a4.78,4.78,0,0,1-.84-.08,6.94,6.94,0,0,1-2.06-.6l-.22-.11-.31-.2a6.18,6.18,0,0,1-.74-.59,7,7,0,0,1-.59-.62,5.71,5.71,0,0,1-.65-.93,5.92,5.92,0,0,1-.76-2.93v-.42a5.43,5.43,0,0,1,.09-.56,4.59,4.59,0,0,1,.51-1.44q.87-1.64,4-2.9a7.73,7.73,0,0,1-1.58-4.14v-.2l0-.25a3.26,3.26,0,0,1,.06-.62,5.22,5.22,0,0,1,.56-1.52q1.47-2.72,5.52-2.71a6.17,6.17,0,0,1,4.9,1.89,5,5,0,0,1,1.24,3.35,5.2,5.2,0,0,1-1.6,3.69,7,7,0,0,1-1.24,1l-.14.1-2.48-2.82a1,1,0,0,0,.22-.18,5.44,5.44,0,0,0,.48-.48,2.29,2.29,0,0,0,.62-1.46,1.86,1.86,0,0,0-.05-.42,1.48,1.48,0,0,0-1.58-1.07,1.47,1.47,0,0,0-1.32.62,2.07,2.07,0,0,0-.23.5,2.1,2.1,0,0,0-.06.48,2.73,2.73,0,0,0,.4,1.3,6.27,6.27,0,0,0,.39.62l.4.53h0l2.51,2.82ZM382.5,110v4.64h-6.31v2.88h5.52v4.67h-5.52v3.07h6.56v4.62H370.84V110ZM350,110v4.62h-4.14v15.26h-5.6V114.57h-4.17V110Zm-49.1,0,7.21,9.49c.6.79,1.17,1.58,1.69,2.37,0-.64,0-1.58-.05-2.82l-.12-9h5.61v19.88h-5.64l-7-9.32-1.16-1.63-.7-1,0,.76,0,.76c0,.61,0,1.11,0,1.53l.12,9h-5.66V110Zm-33.64,0,7.27,19.88h-5.66l-1.21-3.49h-5.88l1.39-4.25h3.08l-1-3.44c-.23-.75-.55-1.88-1-3.38-.36,1.37-.68,2.51-1,3.41l-1,3.41h0l-1.41,4.25h0l-1.13,3.49H254L261.22,110Zm-41.38,0a9.93,9.93,0,0,1,4.28.73l.09.06.11.05c.11.06.22.11.31.17a8.12,8.12,0,0,1,.73.56,4.64,4.64,0,0,1,1.1,1.61A6.81,6.81,0,0,1,233,116v.37c0,.13,0,.27,0,.42,0,.38-.1.73-.17,1.07a5.81,5.81,0,0,1-1.27,2.48l-.09.09-.08.08a1.46,1.46,0,0,1-.25.25,3.18,3.18,0,0,1-.71.59,6.27,6.27,0,0,1-1,.51l5.86,8H228.6l-3.94-5.64v-5.43h.42l.39,0a2.53,2.53,0,0,0,.88-.2,2,2,0,0,0,1.12-2,1.79,1.79,0,0,0-.95-1.81,2.61,2.61,0,0,0-.79-.22,2,2,0,0,0-.34,0h-1.55v15.32h-5.32V110Zm-42.09,11.74,0,.43,0,.42a2.56,2.56,0,0,0,0,.39,3.43,3.43,0,0,0,.08.48,3.77,3.77,0,0,0,.42,1,2.84,2.84,0,0,0,2.6,1.24,3.39,3.39,0,0,0,1.66-.39c.17-.11.34-.24.51-.37a3.37,3.37,0,0,0,.33-.39,3.3,3.3,0,0,0,.57-1.38c0-.21.06-.45.08-.73l0-.74V110h5.6v13a2.56,2.56,0,0,1,0,.42,8.82,8.82,0,0,1-.12,1.1,7,7,0,0,1-1.12,2.73q-2.11,3.11-7.89,3.1-4.23,0-6.39-1.86l-.17-.14-.17-.2-.42-.48a5.49,5.49,0,0,1-.85-1.49,7.16,7.16,0,0,1-.37-1.8l0-.9,0-.9V110h5.63ZM150.06,110l7.27,19.88h-5.66l-1.22-3.49h-5.87l1.39-4.25h3.08l-1-3.44c-.22-.75-.54-1.88-1-3.38-.35,1.37-.67,2.51-.95,3.41l-1,3.41h0l-1.41,4.25h0l-1.12,3.49h-5.78L144.06,110ZM118,110v4.62h-4.14v15.26h-5.61V114.57h-4.16V110Zm-36,5.49-.51-.37-.5-.36a.44.44,0,0,1-.15-.09l-.11-.05-.11-.06c-.25-.13-.48-.24-.71-.34a4.79,4.79,0,0,0-1.88-.45,2.31,2.31,0,0,0-1.64.56,1.48,1.48,0,0,0-.45,1.07,1.45,1.45,0,0,0,.68,1.22,12.4,12.4,0,0,0,2.39.81l.2,0a2,2,0,0,0,.37.09c.32.09.64.19,1,.31A6.9,6.9,0,0,1,82.76,119,4.39,4.39,0,0,1,84,120.51,7.25,7.25,0,0,1,82.9,128a7.3,7.3,0,0,1-5.75,2.31,11.52,11.52,0,0,1-4.56-.9,11.86,11.86,0,0,1-1.52-.82l-.59-.39-.29-.2-.22-.17,1.94-4.14.37.25.34.29a7.49,7.49,0,0,0,4,1.63,2.81,2.81,0,0,0,1.75-.54,1.94,1.94,0,0,0,.73-1.57,1.7,1.7,0,0,0-.42-1.21,2.62,2.62,0,0,0-1.13-.74l-.65-.19-.65-.17-.67-.17c-.28-.08-.55-.15-.79-.23a11.56,11.56,0,0,1-1.47-.5,4.21,4.21,0,0,1-.9-.54,4.58,4.58,0,0,1-1-.9,5.11,5.11,0,0,1-1-3.3,7.8,7.8,0,0,1,.2-1.77A5.17,5.17,0,0,1,71,113a5.37,5.37,0,0,1,2-2.37,7.78,7.78,0,0,1,4.45-1.18,11.81,11.81,0,0,1,3,.39c.37.12.74.24,1.09.37a8.08,8.08,0,0,1,.79.37,6,6,0,0,1,.76.45l.76.45ZM49.21,110v4.64H42.9v2.88h5.52v4.67H42.9v3.07h6.56v4.62H37.54V110ZM511.15,84.78h-.21a42.57,42.57,0,0,1-16.6-3.22,40,40,0,0,1-13.16-8.86,41.49,41.49,0,0,1-8.68-13.27,43.05,43.05,0,0,1-3.16-16.59,42.63,42.63,0,0,1,3.27-16.77,40.85,40.85,0,0,1,9-13.28A41.35,41.35,0,0,1,495,4.05,44.3,44.3,0,0,1,511.15.9V12.27a30.19,30.19,0,0,0-11.52,2.32A27.68,27.68,0,0,0,490.28,21a30.38,30.38,0,0,0-6.12,9.7,32.41,32.41,0,0,0-2.22,12,33.19,33.19,0,0,0,2.12,12,29.85,29.85,0,0,0,5.95,9.7,27.68,27.68,0,0,0,9.19,6.54,28.88,28.88,0,0,0,11.85,2.37h.1ZM554,42.28a42.39,42.39,0,0,1-3.33,16.82,41.32,41.32,0,0,1-9.2,13.45,43.64,43.64,0,0,1-29.29,12.21V73.28A31.07,31.07,0,0,0,523.26,71a28.17,28.17,0,0,0,9.57-6.48,29.74,29.74,0,0,0,6.23-9.81,32.86,32.86,0,0,0,2.23-12.17,33.2,33.2,0,0,0-2.18-12.12,27.31,27.31,0,0,0-15.4-15.84,31,31,0,0,0-11.53-2.27V.9A44.11,44.11,0,0,1,528.47,4a41.13,41.13,0,0,1,13.39,8.62,39.64,39.64,0,0,1,8.92,13.11A42.11,42.11,0,0,1,554,42.28ZM445.84,83.43V2.24H458V83.43ZM433.57,78.5a60.56,60.56,0,0,1-11.86,4.78,44.45,44.45,0,0,1-11.7,1.5,40.63,40.63,0,0,1-16.21-3.23,40,40,0,0,1-13-8.91,41.07,41.07,0,0,1-8.62-13.45,44.53,44.53,0,0,1-3.1-16.69,43.74,43.74,0,0,1,3.1-16.58A39,39,0,0,1,393.75,4.06,41.93,41.93,0,0,1,410.12.9a47.86,47.86,0,0,1,22.22,5.38l.56.29V20.73l-1.63-1.14A44.41,44.41,0,0,0,420.87,14a31,31,0,0,0-10.41-1.73A27.84,27.84,0,0,0,390,21a29.69,29.69,0,0,0-6,9.59,32.92,32.92,0,0,0-2.17,12.06,32.27,32.27,0,0,0,2.28,12.17A29.36,29.36,0,0,0,399.78,71a28.8,28.8,0,0,0,11.69,2.38,30.22,30.22,0,0,0,11-2.23,32.37,32.37,0,0,0,9.88-6l1.73-1.54v14.6ZM300.85,26.28V83.43H289V.34h2.49l56.35,58.75V2.24h11.48l-.11,83.43h-2.49Zm-157.72,0V83.43H131.31V.34h2.48l56.36,58.75V2.24h11.48l-.12,83.43H199ZM89.31,13.72V25.5h30.93V36.43H89.31V72.17h31.6V83.43H77.15V2.24h43.42V13.72Zm136.92,57.8h38.2L249.86,35.26h11.75l20.3,48.17H208.74l20.51-48.17H241Zm19.19-47.3-1.26,3.12H232.62L244.25,0h2.49l11.53,27.34H246.68ZM34.25,57.44,55.83,2.24H68.37L35.16,85.78H32.64L0,2.24H13.32ZM7.34,110a9.93,9.93,0,0,1,4.28.73l.09.06.11.05c.11.06.22.11.31.17a6.91,6.91,0,0,1,.73.56,4.51,4.51,0,0,1,1.1,1.61,6.81,6.81,0,0,1,.57,2.87v.37a3.19,3.19,0,0,1,0,.42c0,.38-.1.73-.17,1.07a5.81,5.81,0,0,1-1.27,2.48l-.08.09-.09.08a1.46,1.46,0,0,1-.25.25,3.18,3.18,0,0,1-.71.59,6.27,6.27,0,0,1-1,.51l5.86,8H10.1l-3.94-5.64v-5.43h.42l.4,0a2.42,2.42,0,0,0,.87-.2,2,2,0,0,0,1.13-2,1.79,1.79,0,0,0-1-1.81,2.61,2.61,0,0,0-.79-.22,1.87,1.87,0,0,0-.34,0H5.34v15.32H0V110Z"/></g></g></svg>